# xmcd
#
# Track frame offsets:
#	150
#	15395
#	34322
#	52863
#	69215
#	81903
#	99561
#	111317
#	124543
#	134842
#	146230
#	162755
#	179418
#	193517
#	209508
#	228613
#	243068
#	256335
#	273527
#	284060
#
# Disc length: 3936 seconds
#
# Revision: 0
# Processed by: cddbd v1.5.2PL0 Copyright (c) Steve Scherf et al.
# Submitted via: EasyCDDAExtractor 12.0.1.1
#
DISCID=2a0f5e14
DTITLE=Heidi Hauge - Best Of Heidi Hauge - CD 01
DYEAR=2009
DGENRE=Country
TTITLE0=Turn It On, Turn It Up, Turn Me Loose
TTITLE1=I Don't Wanna Play House
TTITLE2=Save The Last Dance For Me
TTITLE3=Blanket On The Ground
TTITLE4=Some Broken Hearts Never Mend
TTITLE5=Seven Spanish Angels
TTITLE6=Crying Time
TTITLE7=Nashville's Gone Hollywood
TTITLE8=I'm Gonna Be A Country Girl Again
TTITLE9=Diggy Liggy Lo
TTITLE10=Blue Rose Is
TTITLE11=Saturday Night
TTITLE12=Coat Of Many Colours
TTITLE13=Banks Of The Ohio
TTITLE14=That'll Be Me
TTITLE15=One Way Street
TTITLE16=Right Now
TTITLE17=I'll Fly
TTITLE18=Once A Day
TTITLE19=I've Got A Tiger By The Tail
EXTD=
EXTT0=
EXTT1=
EXTT2=
EXTT3=
EXTT4=
EXTT5=
EXTT6=
EXTT7=
EXTT8=
EXTT9=
EXTT10=
EXTT11=
EXTT12=
EXTT13=
EXTT14=
EXTT15=
EXTT16=
EXTT17=
EXTT18=
EXTT19=
PLAYORDER=
